HIERARCHY
ROOT Hips
{
	OFFSET -338.882294 -555.210510 88.995560
	CHANNELS 6 Xposition Yposition Zposition Zrotation Yrotation Xrotation
	JOINT Spine
	{
		OFFSET 0.000000 2.080078 8.814247
		CHANNELS 6 Xposition Yposition Zposition Zrotation Yrotation Xrotation
		JOINT Spine1
		{
			OFFSET 0.000000 0.000000 8.844139
			CHANNELS 6 Xposition Yposition Zposition Zrotation Yrotation Xrotation
			JOINT Spine2
			{
				OFFSET 0.000000 0.000000 11.682266
				CHANNELS 6 Xposition Yposition Zposition Zrotation Yrotation Xrotation
				JOINT Spine3
				{
					OFFSET 0.000000 0.000000 11.746704
					CHANNELS 6 Xposition Yposition Zposition Zrotation Yrotation Xrotation
					JOINT Neck
					{
						OFFSET 0.000000 0.000000 17.658264
						CHANNELS 6 Xposition Yposition Zposition Zrotation Yrotation Xrotation
						JOINT Neck1
						{
							OFFSET 0.000000 0.000000 5.101517
							CHANNELS 6 Xposition Yposition Zposition Zrotation Yrotation Xrotation
							JOINT Head
							{
								OFFSET 0.000000 0.000000 5.101517
								CHANNELS 6 Xposition Yposition Zposition Zrotation Yrotation Xrotation
								JOINT HeadEnd
								{
									OFFSET 0.000000 0.000000 11.655090
									CHANNELS 6 Xposition Yposition Zposition Zrotation Yrotation Xrotation
									End Site
									{
										OFFSET 0.000000 0.000000 0.100006
									}
								}
							}
						}
					}
					JOINT RightShoulder
					{
						OFFSET -2.625397 0.000000 11.175217
						CHANNELS 6 Xposition Yposition Zposition Zrotation Yrotation Xrotation
						JOINT RightArm
						{
							OFFSET 0.000000 0.000000 10.434723
							CHANNELS 6 Xposition Yposition Zposition Zrotation Yrotation Xrotation
							JOINT RightForeArm
							{
								OFFSET 0.000000 0.000000 29.628418
								CHANNELS 6 Xposition Yposition Zposition Zrotation Yrotation Xrotation
								JOINT RightHand
								{
									OFFSET 0.000000 0.000000 22.857605
									CHANNELS 6 Xposition Yposition Zposition Zrotation Yrotation Xrotation
									JOINT RightHandThumb1
									{
										OFFSET -2.867310 -2.944275 3.959564
										CHANNELS 6 Xposition Yposition Zposition Zrotation Yrotation Xrotation
										JOINT RightHandThumb2
										{
											OFFSET 0.000000 0.000000 3.350403
											CHANNELS 6 Xposition Yposition Zposition Zrotation Yrotation Xrotation
											JOINT RightHandThumb3
											{
												OFFSET 0.000000 0.000000 3.756516
												CHANNELS 6 Xposition Yposition Zposition Zrotation Yrotation Xrotation
												JOINT RightHandThumb4
												{
													OFFSET 0.000000 0.000000 3.147339
													CHANNELS 6 Xposition Yposition Zposition Zrotation Yrotation Xrotation
													End Site
													{
														OFFSET 0.000000 0.000000 0.100006
													}
												}
											}
										}
									}
									JOINT RightHandIndex1
									{
										OFFSET -0.086761 -2.345276 10.030899
										CHANNELS 6 Xposition Yposition Zposition Zrotation Yrotation Xrotation
										JOINT RightHandIndex2
										{
											OFFSET 0.000000 0.000000 4.061096
											CHANNELS 6 Xposition Yposition Zposition Zrotation Yrotation Xrotation
											JOINT RightHandIndex3
											{
												OFFSET 0.000000 0.000000 3.248871
												CHANNELS 6 Xposition Yposition Zposition Zrotation Yrotation Xrotation
												JOINT RightHandIndex4
												{
													OFFSET 0.000000 0.000000 2.639709
													CHANNELS 6 Xposition Yposition Zposition Zrotation Yrotation Xrotation
													End Site
													{
														OFFSET 0.000000 0.000000 0.100006
													}
												}
											}
										}
									}
									JOINT RightHandMiddle1
									{
										OFFSET 0.104095 -0.006775 9.502945
										CHANNELS 6 Xposition Yposition Zposition Zrotation Yrotation Xrotation
										JOINT RightHandMiddle2
										{
											OFFSET 0.000000 0.000000 4.568726
											CHANNELS 6 Xposition Yposition Zposition Zrotation Yrotation Xrotation
											JOINT RightHandMiddle3
											{
												OFFSET 0.000000 0.000000 3.654984
												CHANNELS 6 Xposition Yposition Zposition Zrotation Yrotation Xrotation
												JOINT RightHandMiddle4
												{
													OFFSET 0.000000 0.000000 2.741241
													CHANNELS 6 Xposition Yposition Zposition Zrotation Yrotation Xrotation
													End Site
													{
														OFFSET 0.000000 0.000000 0.100006
													}
												}
											}
										}
									}
									JOINT RightHandRing1
									{
										OFFSET 0.086761 2.267456 8.921707
										CHANNELS 6 Xposition Yposition Zposition Zrotation Yrotation Xrotation
										JOINT RightHandRing2
										{
											OFFSET 0.000000 0.000000 4.061096
											CHANNELS 6 Xposition Yposition Zposition Zrotation Yrotation Xrotation
											JOINT RightHandRing3
											{
												OFFSET 0.000000 0.000000 3.654984
												CHANNELS 6 Xposition Yposition Zposition Zrotation Yrotation Xrotation
												JOINT RightHandRing4
												{
													OFFSET 0.000000 0.000000 2.741241
													CHANNELS 6 Xposition Yposition Zposition Zrotation Yrotation Xrotation
													End Site
													{
														OFFSET 0.000000 0.000000 0.100006
													}
												}
											}
										}
									}
									JOINT RightHandPinky1
									{
										OFFSET -0.173492 4.467224 7.976990
										CHANNELS 6 Xposition Yposition Zposition Zrotation Yrotation Xrotation
										JOINT RightHandPinky2
										{
											OFFSET 0.000000 0.000000 3.350403
											CHANNELS 6 Xposition Yposition Zposition Zrotation Yrotation Xrotation
											JOINT RightHandPinky3
											{
												OFFSET 0.000000 0.000000 2.842758
												CHANNELS 6 Xposition Yposition Zposition Zrotation Yrotation Xrotation
												JOINT RightHandPinky4
												{
													OFFSET 0.000000 0.000000 2.639709
													CHANNELS 6 Xposition Yposition Zposition Zrotation Yrotation Xrotation
													End Site
													{
														OFFSET 0.000000 0.000000 0.100006
													}
												}
											}
										}
									}
									JOINT RightForeArmEnd
									{
										OFFSET 0.000000 0.000000 0.000000
										CHANNELS 6 Xposition Yposition Zposition Zrotation Yrotation Xrotation
										End Site
										{
											OFFSET 0.000000 0.000000 0.100006
										}
									}
								}
								JOINT RightArmEnd
								{
									OFFSET 0.000000 0.000000 0.000000
									CHANNELS 6 Xposition Yposition Zposition Zrotation Yrotation Xrotation
									End Site
									{
										OFFSET 0.000000 0.000000 0.100006
									}
								}
							}
						}
					}
					JOINT LeftShoulder
					{
						OFFSET 2.625397 0.000000 11.175217
						CHANNELS 6 Xposition Yposition Zposition Zrotation Yrotation Xrotation
						JOINT LeftArm
						{
							OFFSET 0.000000 0.000000 10.813629
							CHANNELS 6 Xposition Yposition Zposition Zrotation Yrotation Xrotation
							JOINT LeftForeArm
							{
								OFFSET 0.000000 0.000000 28.724777
								CHANNELS 6 Xposition Yposition Zposition Zrotation Yrotation Xrotation
								JOINT LeftHand
								{
									OFFSET 0.644379 0.328857 25.716171
									CHANNELS 6 Xposition Yposition Zposition Zrotation Yrotation Xrotation
									JOINT LeftHandThumb1
									{
										OFFSET 2.867310 -2.944275 3.959564
										CHANNELS 6 Xposition Yposition Zposition Zrotation Yrotation Xrotation
										JOINT LeftHandThumb2
										{
											OFFSET 0.000000 0.000000 3.350403
											CHANNELS 6 Xposition Yposition Zposition Zrotation Yrotation Xrotation
											JOINT LeftHandThumb3
											{
												OFFSET 0.000000 0.000000 3.756516
												CHANNELS 6 Xposition Yposition Zposition Zrotation Yrotation Xrotation
												JOINT LeftHandThumb4
												{
													OFFSET 0.000000 0.000000 3.100006
													CHANNELS 6 Xposition Yposition Zposition Zrotation Yrotation Xrotation
													End Site
													{
														OFFSET 0.000000 0.000000 0.100006
													}
												}
											}
										}
									}
									JOINT LeftHandIndex1
									{
										OFFSET 0.086761 -2.345276 10.030899
										CHANNELS 6 Xposition Yposition Zposition Zrotation Yrotation Xrotation
										JOINT LeftHandIndex2
										{
											OFFSET 0.000000 0.000000 4.061096
											CHANNELS 6 Xposition Yposition Zposition Zrotation Yrotation Xrotation
											JOINT LeftHandIndex3
											{
												OFFSET 0.000000 0.000000 3.248871
												CHANNELS 6 Xposition Yposition Zposition Zrotation Yrotation Xrotation
												JOINT LeftHandIndex4
												{
													OFFSET 0.000000 0.000000 2.639709
													CHANNELS 6 Xposition Yposition Zposition Zrotation Yrotation Xrotation
													End Site
													{
														OFFSET 0.000000 0.000000 0.100006
													}
												}
											}
										}
									}
									JOINT LeftHandMiddle1
									{
										OFFSET -0.104095 -0.006775 9.502945
										CHANNELS 6 Xposition Yposition Zposition Zrotation Yrotation Xrotation
										JOINT LeftHandMiddle2
										{
											OFFSET 0.000000 0.000000 4.568726
											CHANNELS 6 Xposition Yposition Zposition Zrotation Yrotation Xrotation
											JOINT LeftHandMiddle3
											{
												OFFSET 0.000000 0.000000 3.654984
												CHANNELS 6 Xposition Yposition Zposition Zrotation Yrotation Xrotation
												JOINT LeftHandMiddle4
												{
													OFFSET 0.000000 0.000000 2.741241
													CHANNELS 6 Xposition Yposition Zposition Zrotation Yrotation Xrotation
													End Site
													{
														OFFSET 0.000000 0.000000 0.100006
													}
												}
											}
										}
									}
									JOINT LeftHandRing1
									{
										OFFSET -0.086761 2.267456 8.921707
										CHANNELS 6 Xposition Yposition Zposition Zrotation Yrotation Xrotation
										JOINT LeftHandRing2
										{
											OFFSET 0.000000 0.000000 4.061096
											CHANNELS 6 Xposition Yposition Zposition Zrotation Yrotation Xrotation
											JOINT LeftHandRing3
											{
												OFFSET 0.000000 0.000000 3.654984
												CHANNELS 6 Xposition Yposition Zposition Zrotation Yrotation Xrotation
												JOINT LeftHandRing4
												{
													OFFSET 0.000000 0.000000 2.741241
													CHANNELS 6 Xposition Yposition Zposition Zrotation Yrotation Xrotation
													End Site
													{
														OFFSET 0.000000 0.000000 0.100006
													}
												}
											}
										}
									}
									JOINT LeftHandPinky1
									{
										OFFSET 0.173492 4.467224 7.976990
										CHANNELS 6 Xposition Yposition Zposition Zrotation Yrotation Xrotation
										JOINT LeftHandPinky2
										{
											OFFSET 0.000000 0.000000 3.350403
											CHANNELS 6 Xposition Yposition Zposition Zrotation Yrotation Xrotation
											JOINT LeftHandPinky3
											{
												OFFSET 0.000000 0.000000 2.842758
												CHANNELS 6 Xposition Yposition Zposition Zrotation Yrotation Xrotation
												JOINT LeftHandPinky4
												{
													OFFSET 0.000000 0.000000 2.639709
													CHANNELS 6 Xposition Yposition Zposition Zrotation Yrotation Xrotation
													End Site
													{
														OFFSET 0.000000 0.000000 0.100006
													}
												}
											}
										}
									}
									JOINT LeftForeArmEnd
									{
										OFFSET 0.000000 0.000000 0.000000
										CHANNELS 6 Xposition Yposition Zposition Zrotation Yrotation Xrotation
										End Site
										{
											OFFSET 0.000000 0.000000 0.100006
										}
									}
								}
								JOINT LeftArmEnd
								{
									OFFSET 0.000000 0.000000 0.000000
									CHANNELS 6 Xposition Yposition Zposition Zrotation Yrotation Xrotation
									End Site
									{
										OFFSET 0.000000 0.000000 0.100006
									}
								}
							}
						}
					}
				}
			}
		}
	}
	JOINT RightUpLeg
	{
		OFFSET -11.289948 0.000000 0.000000
		CHANNELS 6 Xposition Yposition Zposition Zrotation Yrotation Xrotation
		JOINT RightLeg
		{
			OFFSET 0.000000 0.000000 -38.200321
			CHANNELS 6 Xposition Yposition Zposition Zrotation Yrotation Xrotation
			JOINT RightFoot
			{
				OFFSET 0.000000 0.000000 -39.900856
				CHANNELS 6 Xposition Yposition Zposition Zrotation Yrotation Xrotation
				JOINT RightToeBase
				{
					OFFSET 0.000000 -15.261658 0.000001
					CHANNELS 6 Xposition Yposition Zposition Zrotation Yrotation Xrotation
					JOINT RightToeBaseEnd
					{
						OFFSET 0.000000 -7.370728 0.000001
						CHANNELS 6 Xposition Yposition Zposition Zrotation Yrotation Xrotation
						End Site
						{
							OFFSET 0.000000 0.000000 0.100000
						}
					}
				}
				JOINT RightLegEnd
				{
					OFFSET 0.000000 0.000000 0.000000
					CHANNELS 6 Xposition Yposition Zposition Zrotation Yrotation Xrotation
					End Site
					{
						OFFSET 0.000000 0.000000 0.100000
					}
				}
			}
			JOINT RightUpLegEnd
			{
				OFFSET 0.000000 0.000000 0.000000
				CHANNELS 6 Xposition Yposition Zposition Zrotation Yrotation Xrotation
				End Site
				{
					OFFSET 0.000000 0.000000 0.099998
				}
			}
		}
	}
	JOINT LeftUpLeg
	{
		OFFSET 11.315674 0.000000 0.000000
		CHANNELS 6 Xposition Yposition Zposition Zrotation Yrotation Xrotation
		JOINT LeftLeg
		{
			OFFSET 0.000000 0.000000 -38.200321
			CHANNELS 6 Xposition Yposition Zposition Zrotation Yrotation Xrotation
			JOINT LeftFoot
			{
				OFFSET 0.000000 0.000000 -39.900856
				CHANNELS 6 Xposition Yposition Zposition Zrotation Yrotation Xrotation
				JOINT LeftToeBase
				{
					OFFSET 0.000000 -15.261658 0.000001
					CHANNELS 6 Xposition Yposition Zposition Zrotation Yrotation Xrotation
					JOINT LeftToeBaseEnd
					{
						OFFSET 0.000000 -7.539978 0.000001
						CHANNELS 6 Xposition Yposition Zposition Zrotation Yrotation Xrotation
						End Site
						{
							OFFSET 0.000000 0.000000 0.100000
						}
					}
				}
				JOINT LeftLegEnd
				{
					OFFSET 0.000000 0.000000 0.000000
					CHANNELS 6 Xposition Yposition Zposition Zrotation Yrotation Xrotation
					End Site
					{
						OFFSET 0.000000 0.000000 0.100000
					}
				}
			}
			JOINT LeftUpLegEnd
			{
				OFFSET 0.000000 0.000000 0.000000
				CHANNELS 6 Xposition Yposition Zposition Zrotation Yrotation Xrotation
				End Site
				{
					OFFSET 0.000000 0.000000 0.099998
				}
			}
		}
	}
}
MOTION
Frames: 2
Frame Time: 0.016667
3.006500 -3.288208 87.465149 9.965488 0.966021 -13.835118 0.000005 2.080076 8.814255 -0.736057 -3.248777 9.812439 0.000005 -0.000025 8.844126 0.259477 0.192758 4.554867 0.000007 -0.000015 11.682270 3.170291 4.214137 6.864033 0.000008 -0.000060 11.746696 1.028532 3.738668 1.662668 -0.000003 0.000008 17.658274 -3.568463 -1.958420 -11.427392 0.000004 0.000013 5.101492 -4.082769 -0.225091 -12.839380 0.000013 0.000028 5.101575 -1.251780 0.758373 -13.787248 0.000001 -0.000005 11.655087 -0.000000 0.000000 -0.000001 -2.625434 -0.000014 11.175212 15.346662 -90.590001 -0.344915 -0.000015 0.000014 10.434685 -49.151090 -49.030872 43.734804 0.000011 -0.000023 29.628452 16.142213 0.791387 17.450134 0.000004 -0.000120 22.857601 14.819443 -8.466384 -9.582505 -2.867290 -2.944305 3.959496 31.570367 -17.795580 50.709015 -0.000008 -0.000015 3.350418 -13.848238 8.875893 -24.834945 -0.000019 0.000008 3.756485 -9.200079 6.815942 -16.986829 -0.000007 0.000016 3.147362 -0.000002 0.000001 -0.000000 -0.086739 -2.345257 10.030909 -12.284298 -18.562953 -0.745177 -0.000002 -0.000008 4.061102 0.293263 -12.844920 1.836415 0.000001 0.000028 3.248877 -0.206701 -12.844915 1.836413 0.000017 0.000006 2.639725 -0.000001 0.000000 -0.000000 0.104080 -0.006765 9.502935 -7.158144 -19.163952 -3.424436 -0.000006 0.000022 4.568750 0.415267 -13.435993 0.717428 0.000002 -0.000003 3.655017 -0.084629 -13.436204 0.717404 -0.000014 0.000024 2.741231 -0.000003 0.000000 -0.000000 0.086733 2.267442 8.921734 -0.222623 -27.523475 -2.665297 0.000004 0.000004 4.061132 -0.784156 -19.634892 -1.250179 -0.000006 0.000021 3.655005 0.215720 -19.634885 -1.250129 0.000011 0.000008 2.741271 -0.000001 -0.000001 0.000001 -0.173485 4.467217 7.976974 8.703378 -36.181609 -5.077838 0.000004 -0.000012 3.350376 -0.813820 -25.320968 -5.276952 -0.000003 0.000025 2.842770 1.186189 -25.320877 -5.276949 -0.000006 0.000007 2.639699 0.000000 -0.000001 0.000000 -0.000003 0.000010 -0.000032 -0.000001 0.000000 -0.000001 -0.000013 -0.000001 0.000011 -0.000000 0.000002 0.000002 2.625410 -0.000013 11.175229 -8.427692 89.467705 0.366067 0.000008 0.000031 10.813621 14.566902 53.898262 -2.043475 -0.000023 0.000008 28.724819 -16.566265 1.912176 39.379135 0.644346 0.328903 25.716169 -27.377174 -3.429158 -20.636182 2.867285 -2.944290 3.959549 -36.018617 33.998421 28.436593 0.000008 0.000000 3.350368 47.714725 -4.206289 -80.506306 0.000008 0.000031 3.756496 33.203568 -10.423903 -55.977218 0.000003 0.000058 3.099990 0.000000 -0.000000 0.000000 0.086769 -2.345310 10.030869 161.897572 35.911174 -27.990744 -0.000004 0.000004 4.061096 54.403126 101.174049 45.364624 0.000019 0.000023 3.248856 53.903098 101.174055 45.361820 -0.000007 -0.000007 2.639744 -0.000001 -0.000000 0.000001 -0.104103 -0.006714 9.503006 171.249290 28.858949 -52.091203 0.000023 -0.000006 4.568726 16.152542 103.823697 12.297383 0.000004 -0.000010 3.655018 15.652536 103.823684 12.297397 0.000035 0.000005 2.741243 -0.000001 0.000001 0.000000 -0.086765 2.267433 8.921661 9.497486 23.906646 17.818116 -0.000009 -0.000016 4.061132 -0.821634 17.904634 1.132264 -0.000002 0.000029 3.654982 0.178373 17.904632 1.132261 -0.000006 0.000010 2.741249 -0.000002 0.000001 -0.000002 0.173508 4.467207 7.977005 29.161680 44.039185 23.423055 0.000008 -0.000006 3.350418 0.225484 33.486689 7.388278 0.000000 -0.000031 2.842751 2.225489 33.486659 7.388270 0.000011 -0.000005 2.639695 0.000000 -0.000001 0.000003 -0.000015 0.000068 -0.000002 -0.000001 0.000003 0.000000 0.000005 -0.000004 -0.000028 0.000000 0.000001 0.000002 -11.289963 -0.000019 0.000008 -17.605605 15.549831 9.886292 -0.000015 0.000024 -38.200325 -1.733085 0.408637 13.263356 -0.000053 -0.000049 -39.900864 -31.758764 -7.545012 26.988082 0.000011 -15.261721 0.000036 1.297336 3.554408 -17.940146 0.000013 -7.370730 0.000002 0.000000 0.000000 -0.000000 -0.000026 -0.000056 0.000003 -0.000001 0.000000 0.000001 -0.000026 -0.000004 -0.000004 0.000001 -0.000001 0.000000 11.315639 -0.000021 0.000013 -10.500857 -3.628869 3.260660 -0.000023 -0.000014 -38.200329 0.602208 -0.280096 24.942888 -0.000027 0.000003 -39.900871 13.920229 3.899763 13.956161 -0.000018 -15.261726 0.000030 -1.244903 -0.935530 -20.210907 -0.000035 -7.539976 0.000002 -0.000000 -0.000001 0.000001 -0.000024 -0.000050 0.000001 -0.000002 -0.000001 0.000001 -0.000029 -0.000001 0.000002 -0.000000 0.000001 0.000000 
3.800262 -3.169556 87.542473 9.782334 0.854244 -13.592554 0.000013 2.080081 8.814245 -0.682272 -3.071665 9.767402 0.000010 0.000028 8.844132 0.263938 0.202610 4.576863 0.000011 0.000024 11.682280 3.245889 4.379022 6.855269 -0.000004 0.000009 11.746712 1.041259 3.854094 1.632323 0.000011 0.000059 17.658272 -3.623246 -1.550924 -11.143266 0.000004 0.000010 5.101521 -4.299613 -0.182980 -12.676549 0.000013 0.000007 5.101532 -1.272840 0.713305 -13.742806 -0.000001 -0.000001 11.655078 0.000000 0.000000 0.000001 -2.625416 0.000011 11.175206 15.287850 -90.541568 -0.391433 0.000008 0.000011 10.434692 -48.796220 -50.171930 43.285098 0.000004 0.000011 29.628429 15.937456 0.935798 16.604892 0.000015 -0.000116 22.857594 15.208082 -8.846889 -9.707406 -2.867321 -2.944260 3.959526 31.570364 -17.795581 50.709022 -0.000019 0.000015 3.350346 -13.848245 8.875905 -24.834937 0.000004 0.000019 3.756462 -9.200091 6.815932 -16.986844 -0.000002 0.000004 3.147346 -0.000000 -0.000002 -0.000000 -0.086769 -2.345270 10.030925 -12.328812 -18.755197 -0.812766 -0.000010 0.000014 4.061085 0.289854 -12.971725 1.855005 0.000007 0.000022 3.248873 -0.210744 -12.971688 1.855141 -0.000004 -0.000014 2.639738 0.000002 -0.000001 -0.000000 0.104073 -0.006767 9.502964 -7.200561 -19.348574 -3.313260 0.000008 -0.000015 4.568748 0.413214 -13.571828 0.724916 -0.000002 0.000009 3.655004 -0.086493 -13.572005 0.724861 -0.000010 0.000013 2.741270 -0.000002 -0.000002 0.000001 0.086764 2.267436 8.921749 -0.258150 -27.757095 -2.319970 -0.000001 -0.000022 4.061102 -0.780300 -19.781331 -1.260433 -0.000013 0.000003 3.655018 0.219784 -19.781346 -1.260460 -0.000011 0.000004 2.741266 -0.000001 -0.000002 -0.000001 -0.173485 4.467221 7.976986 8.712215 -36.363630 -4.565786 -0.000004 -0.000014 3.350399 -0.809515 -25.362973 -5.287007 0.000013 0.000016 2.842766 1.190481 -25.363008 -5.287007 -0.000033 -0.000001 2.639683 -0.000000 -0.000000 -0.000002 -0.000019 0.000008 -0.000012 -0.000002 0.000000 0.000000 -0.000029 0.000002 -0.000014 -0.000000 0.000000 0.000001 2.625392 -0.000030 11.175209 -8.208899 89.627272 0.512438 0.000023 -0.000019 10.813640 14.186764 53.512784 -2.369562 -0.000002 0.000031 28.724815 -16.995216 1.629866 40.204392 0.644342 0.328903 25.716166 -27.191099 -4.156342 -20.278639 2.867321 -2.944275 3.959579 -36.018624 33.998438 28.436601 -0.000004 0.000008 3.350426 47.714718 -4.206306 -80.506333 0.000000 -0.000031 3.756542 33.203571 -10.423917 -55.977201 -0.000008 0.000057 3.100003 0.000001 -0.000000 0.000000 0.086754 -2.345261 10.030899 161.981570 35.774178 -28.753140 0.000011 -0.000050 4.061069 54.322571 101.189505 45.280678 0.000034 0.000002 3.248882 53.822516 101.189512 45.277594 -0.000000 -0.000015 2.639694 0.000002 -0.000000 -0.000000 -0.104088 -0.006733 9.503006 171.247637 29.195090 -53.995436 0.000027 0.000016 4.568726 16.417632 103.539384 12.571220 -0.000027 0.000022 3.654972 15.917582 103.539350 12.569838 0.000001 -0.000004 2.741244 0.000001 0.000001 0.000000 -0.086764 2.267448 8.921692 10.089882 26.258632 20.318189 0.000008 -0.000029 4.061078 -0.781939 19.707184 1.255348 0.000008 0.000012 3.654991 0.218044 19.707247 1.255337 0.000023 0.000008 2.741256 -0.000001 0.000002 -0.000003 0.173500 4.467186 7.976990 30.235888 45.385084 26.323105 -0.000031 -0.000028 3.350407 0.443420 34.841386 7.776327 0.000019 -0.000037 2.842762 2.443423 34.841454 7.776348 -0.000015 -0.000015 2.639718 0.000002 -0.000000 -0.000001 0.000006 -0.000041 0.000008 -0.000003 0.000002 0.000000 0.000008 -0.000056 -0.000003 -0.000000 0.000002 0.000002 -11.289959 -0.000023 0.000000 -17.177782 15.817827 9.029519 0.000012 0.000034 -38.200325 -1.585500 0.389782 13.808256 -0.000003 -0.000018 -39.900879 -32.487368 -6.529256 27.902460 -0.000000 -15.261751 0.000023 0.972555 3.624736 -18.297476 -0.000002 -7.370740 0.000000 0.000002 -0.000001 -0.000001 -0.000039 -0.000058 -0.000000 -0.000000 -0.000000 -0.000000 -0.000024 -0.000007 -0.000007 0.000001 -0.000000 -0.000000 11.315610 -0.000084 -0.000006 -10.486954 -2.945537 3.114365 0.000000 0.000030 -38.200344 0.528911 -0.242852 24.662041 -0.000040 0.000003 -39.900867 14.389873 3.442045 13.959217 -0.000004 -15.261714 0.000020 -1.177530 -0.884014 -20.306026 -0.000017 -7.539977 0.000002 -0.000000 0.000000 -0.000000 -0.000016 -0.000014 0.000000 0.000002 -0.000000 -0.000002 -0.000030 -0.000001 -0.000004 0.000000 -0.000000 -0.000000 
